Coordinates
version=1
nRows=13
nColumns=22
inDegrees=yes

Units are S.I. units (second, meters, Newtons, ...)
If the header above contains a line with 'inDegrees', this indicates whether rotational values are in degrees (yes) or radians (no).

endheader
time	pelvis_tilt	pelvis_list	pelvis_rotation	pelvis_tx	pelvis_ty	pelvis_tz	hip_flexion_r	hip_adduction_r	hip_rotation_r	knee_angle_r	ankle_angle_r	subtalar_angle_r	hip_flexion_l	hip_adduction_l	hip_rotation_l	knee_angle_l	ankle_angle_l	subtalar_angle_l	lumbar_extension	lumbar_bending	lumbar_rotation
      2.90000000	      3.79081021	     -5.62106720	      3.86325198	     -0.64081128	      1.08036253	     -0.30109601	      0.20938160	     10.25366656	     -4.39918333	    -11.59179389	      9.65194446	     -2.41549053	     16.38965167	     -7.54140244	      3.38293791	    -59.48165692	      3.45963516	      2.52906029	     -7.65078969	      2.90916127	     -2.87669990
      2.91000000	      3.79693905	     -5.42818920	      3.62002718	     -0.63332431	      1.08076594	     -0.30032436	     -0.37626483	     10.10972503	     -4.10913299	    -11.40432436	      9.93560477	     -2.23597763	     17.04262866	     -7.32334737	      3.07497569	    -58.30323893	      4.20281388	      2.31226349	     -7.72379477	      2.65608406	     -2.42318208
      2.92000000	      3.78074573	     -5.25509385	      3.37325776	     -0.62586980	      1.08102962	     -0.29958637	     -0.89522527	      9.97429632	     -3.88940963	    -11.28462428	     10.24445861	     -2.09320465	     17.66821245	     -7.14323087	      2.71953893	    -56.97114391	      4.89852159	      2.23406097	     -7.77009696	      2.42769378	     -1.98773988
      2.93000000	      3.78473975	     -5.08540481	      3.13289389	     -0.61840686	      1.08125307	     -0.29893909	     -1.43631324	      9.83624153	     -3.63451867	    -11.16240572	     10.54156065	     -1.91100715	     18.20863706	     -6.96938158	      2.34211540	    -55.48288526	      5.50557839	      2.23388122	     -7.83690879	      2.21458418	     -1.55782897
      2.94000000	      3.75551026	     -4.93716938	      2.89234701	     -0.61096698	      1.08130964	     -0.29834241	     -1.89506337	      9.70822143	     -3.43622933	    -11.12030544	     10.88033484	     -1.77099066	     18.73853663	     -6.83678700	      1.91008828	    -53.87588878	      6.08135207	      2.30088975	     -7.86317121	      2.03009390	     -1.15011850
      2.95000000	      3.73853359	     -4.79455300	      2.65973446	     -0.60352571	      1.08130588	     -0.29782918	     -2.36374990	      9.57928278	     -3.20715759	    -11.08219372	     11.21392738	     -1.60286717	     19.19863510	     -6.71429847	      1.45511212	    -52.14921684	      6.59432049	      2.43812295	     -7.90273525	      1.85977760	     -0.74871812
      2.96000000	      3.72087708	     -4.66317896	      2.44069241	     -0.59608060	      1.08121081	     -0.29739691	     -2.81818728	      9.45469517	     -2.98274524	    -11.06614955	     11.55367396	     -1.42537147	     19.60872344	     -6.61076814	      0.97039347	    -50.32278603	      7.06387947	      2.62636175	     -7.93967228	      1.70892603	     -0.38220800
      2.97000000	      3.70870275	     -4.53780296	      2.24077216	     -0.58861169	      1.08103943	     -0.29706603	     -3.27170427	      9.32995780	     -2.75642333	    -11.06136592	     11.88735048	     -1.23141747	     19.96155573	     -6.51996709	      0.44941054	    -48.40817694	      7.49443054	      2.86061527	     -7.97768869	      1.57637555	     -0.06064407
      2.98000000	      3.66673644	     -4.42139119	      2.04829551	     -0.58115840	      1.08072615	     -0.29680788	     -3.66303417	      9.20548883	     -2.56395919	    -11.10840623	     12.25272596	     -1.07560483	     20.30269619	     -6.44383307	     -0.11095167	    -46.42839269	      7.87259845	      3.07198384	     -7.98342053	      1.45647977	      0.24047843
      2.99000000	      3.61325918	     -4.30651827	      1.87198607	     -0.57368603	      1.08031345	     -0.29664475	     -4.02732234	      9.07638893	     -2.39039061	    -11.18071731	     12.62840701	     -0.94393437	     20.60944574	     -6.37081422	     -0.71052093	    -44.38833077	      8.18005508	      3.26942066	     -7.97385186	      1.34436569	      0.50623479
      3.00000000	      3.52004277	     -4.19133197	      1.71779834	     -0.56620084	      1.07975143	     -0.29659696	     -4.32196367	      8.93970929	     -2.26380584	    -11.29997701	     13.03147259	     -0.86808944	     20.92102364	     -6.29240472	     -1.34803872	    -42.30807731	      8.39963775	      3.41932280	     -7.91627986	      1.23858021	      0.72553177
      3.01000000	      3.49206964	     -4.07104775	      1.59200824	     -0.55862345	      1.07923913	     -0.29666706	     -4.70253150	      8.79774502	     -2.13217883	    -11.39185723	     13.37407064	     -0.77769341	     21.10548227	     -6.20513126	     -2.03054543	    -40.17147045	      8.56837824	      3.60922686	     -7.92649429	      1.13513871	      0.88626549
      3.02000000	      3.42213047	     -3.94871220	      1.49266096	     -0.55102688	      1.07857586	     -0.29687009	     -5.00228938	      8.64793909	     -2.06444304	    -11.54705614	     13.74666675	     -0.75678370	     21.30457598	     -6.09898588	     -2.74790871	    -38.02162938	      8.63288767	      3.75069566	     -7.88748001	      1.03544104	      0.99552165
